<svg width="1200" height="780" viewBox="0 0 1200 780" fill="none" xmlns="http://www.w3.org/2000/svg">
  <rect width="1200" height="780" rx="36" fill="#F6EFE7"/>
  <circle cx="990" cy="122" r="124" fill="#EFD7C8"/>
  <circle cx="182" cy="658" r="146" fill="#D8E0E7"/>
  <path d="M292 676C292 548.975 394.975 446 522 446H650C777.025 446 880 548.975 880 676V780H292V676Z" fill="#2F4858"/>
  <path d="M467 298C467 221.784 528.784 160 605 160C681.216 160 743 221.784 743 298V347C743 423.216 681.216 485 605 485C528.784 485 467 423.216 467 347V298Z" fill="#D8A58A"/>
  <path d="M502 273C530.734 235.835 572.729 214 618.056 214H648C706.542 214 754 261.458 754 320V352H706C647.458 352 600 304.542 600 246V224L502 273Z" fill="#243746"/>
  <path d="M483 333C483 250.157 550.157 183 633 183H645C708.513 183 760 234.487 760 298V340H690C575.677 340 483 432.677 483 547V333Z" fill="#243746"/>
  <path d="M513 337C510.432 324.703 499.608 316 487 316C472.641 316 461 327.641 461 342V355C461 369.359 472.641 381 487 381H509L513 337Z" fill="#D8A58A"/>
  <path d="M714 338C716.568 325.703 727.392 317 740 317C754.359 317 766 328.641 766 343V356C766 370.359 754.359 382 740 382H718L714 338Z" fill="#D8A58A"/>
  <path d="M590 407C613.901 407 633.707 392.741 638.743 373.318C640.188 367.744 635.898 362 630.14 362H549.86C544.102 362 539.812 367.744 541.257 373.318C546.293 392.741 566.099 407 590 407Z" fill="#B36E5A"/>
  <path d="M405 631C412.512 529.832 496.921 450 598.366 450H605.634C707.079 450 791.488 529.832 799 631L808 780H396L405 631Z" fill="#5B7587"/>
  <path d="M692 499C663.364 483.073 633.627 475.109 603.89 475.109C574.153 475.109 544.416 483.073 515.78 499L548.309 549.52C556.359 562.025 570.205 569.589 585.067 569.589H622.713C637.575 569.589 651.421 562.025 659.471 549.52L692 499Z" fill="#E6EDF2"/>
  <path d="M719 541C701.435 522.543 677.28 512 652.083 512H641C622.775 512 608 526.775 608 545V560C608 578.225 622.775 593 641 593H659C700.421 593 734 626.579 734 668V691H786V650.388C786 609.463 771.171 571.704 744.169 542.595L719 541Z" fill="#D8A58A"/>
  <path d="M456 541C473.565 522.543 497.72 512 522.917 512H534C552.225 512 567 526.775 567 545V560C567 578.225 552.225 593 534 593H516C474.579 593 441 626.579 441 668V691H389V650.388C389 609.463 403.829 571.704 430.831 542.595L456 541Z" fill="#D8A58A"/>
  <path d="M679 547C679 596.154 639.154 636 590 636C540.846 636 501 596.154 501 547C501 497.846 540.846 458 590 458C639.154 458 679 497.846 679 547Z" fill="#D8A58A"/>
  <path d="M656 523C656 560.003 626.003 590 589 590C551.997 590 522 560.003 522 523C522 485.997 551.997 456 589 456C626.003 456 656 485.997 656 523Z" fill="#E1B29A"/>
  <path d="M536 492C548.985 480.817 567.727 474 588.061 474C629.449 474 663 502.206 663 537C663 560.547 647.627 581.074 624.877 592.074C622.237 593.351 619.241 592.065 618.241 589.308L593.159 520.158C591.123 514.542 584.592 512.532 579.961 515.908L544.385 541.846C541.252 544.129 536.845 543.215 534.87 539.88C530.18 531.951 527.5 522.291 527.5 512.0C527.5 504.536 530.469 497.37 536 492Z" fill="#C68673"/>
  <path d="M571 512C571 499.297 581.297 489 594 489C606.703 489 617 499.297 617 512V568C617 580.703 606.703 591 594 591C581.297 591 571 580.703 571 568V512Z" fill="#D8A58A"/>
  <path d="M770 229C770 229 812.365 208.914 842 182" stroke="#B86A52" stroke-width="14" stroke-linecap="round"/>
  <path d="M770 279C770 279 826.136 278.281 865 287" stroke="#B86A52" stroke-width="14" stroke-linecap="round"/>
  <path d="M449 169C449 169 411.759 142.011 388 110" stroke="#B86A52" stroke-width="14" stroke-linecap="round"/>
  <path d="M429 246C429 246 381.018 239.909 338 250" stroke="#B86A52" stroke-width="14" stroke-linecap="round"/>
</svg>
